<?xml version="1.0" encoding="UTF-8" standalone="no"?>
<svg xmlns:xlink="http://www.w3.org/1999/xlink" xmlns="http://www.w3.org/2000/svg" version="1.1" viewBox="0 0 1280 720">
	<defs>
		<style type="text/css">
			.background
			{
				fill: #ffb42a;
			}
			.light-fill
			{
				fill: #fdd37a;
			}
			.primary-fill
			{
				fill: #225764;
			}
			.primary-stroke, .background-stroke
			{
				stroke-width: 3;
				stroke-linecap: round;
				stroke-linejoin: round;
			}
			.primary-stroke
			{
				stroke: #225764;
			}
			.background-stroke
			{
				stroke: #ffb42a;
			}
		</style>
	</defs>
	<rect x="0" y="0" width="1280" height="720" class="background"/>
	<g id="rotl" transform="translate(0, 2)">
		<g id="left-operator" transform="translate(0, -12)">
			<path d="M320.126+196.47L291.454+182.966L291.454+174.966L320.126+161.462L320.126+168.822L301.566+177.398C300.713+177.782+299.87+178.113+299.038+178.39C298.206+178.667+297.555+178.849+297.086+178.934C297.555+179.019+298.217+179.19+299.07+179.446C299.923+179.702+300.755+180.022+301.566+180.406L320.126+188.982L320.126+196.47ZM353.726+196.47L325.054+182.966L325.054+174.966L353.726+161.462L353.726+168.822L335.166+177.398C334.313+177.782+333.47+178.113+332.638+178.39C331.806+178.667+331.155+178.849+330.686+178.934C331.155+179.019+331.817+179.19+332.67+179.446C333.523+179.702+334.355+180.022+335.166+180.406L353.726+188.982L353.726+196.47ZM387.326+196.47L358.654+182.966L358.654+174.966L387.326+161.462L387.326+168.822L368.766+177.398C367.913+177.782+367.07+178.113+366.238+178.39C365.406+178.667+364.755+178.849+364.286+178.934C364.755+179.019+365.417+179.19+366.27+179.446C367.123+179.702+367.955+180.022+368.766+180.406L387.326+188.982L387.326+196.47Z" class="primary-fill"/>
		</g>
		<g id="left-bit-numbers">
			<path d="M120.021+319.691L128.061+299.321L117.891+299.321L117.891+303.791L116.24+303.791L116.24+297.791L129.591+297.791L129.591+299.441L121.731+319.691L120.021+319.691Z" class="primary-fill"/>
			<path d="M185.148+319.973C183.828+319.973+182.673+319.683+181.683+319.103C180.693+318.523+179.918+317.718+179.358+316.688C178.798+315.658+178.518+314.453+178.518+313.073C178.518+312.133+178.693+311.198+179.043+310.268C179.393+309.338+179.828+308.413+180.348+307.493L185.928+297.773L187.608+297.773L181.458+308.063L181.578+308.153C181.878+307.793+182.398+307.438+183.138+307.088C183.878+306.738+184.748+306.563+185.748+306.563C186.948+306.563+188.003+306.843+188.913+307.403C189.823+307.963+190.528+308.738+191.028+309.728C191.528+310.718+191.778+311.883+191.778+313.223C191.778+314.563+191.503+315.738+190.953+316.748C190.403+317.758+189.628+318.543+188.628+319.103C187.628+319.663+186.468+319.953+185.148+319.973ZM185.148+318.623C186.688+318.623+187.928+318.138+188.868+317.168C189.808+316.198+190.278+314.883+190.278+313.223C190.278+312.163+190.063+311.228+189.633+310.418C189.203+309.608+188.603+308.973+187.833+308.513C187.063+308.053+186.168+307.823+185.148+307.823C184.128+307.823+183.238+308.053+182.478+308.513C181.718+308.973+181.123+309.608+180.693+310.418C180.263+311.228+180.038+312.163+180.018+313.223C179.978+314.883+180.428+316.198+181.368+317.168C182.308+318.138+183.568+318.623+185.148+318.623Z" class="primary-fill"/>
			<path d="M247.969+319.726C246.209+319.726+244.799+319.256+243.739+318.316C242.679+317.376+242.089+316.086+241.969+314.446L243.469+314.446C243.549+315.666+243.979+316.626+244.759+317.326C245.539+318.026+246.609+318.376+247.969+318.376C249.389+318.376+250.494+317.931+251.284+317.041C252.074+316.151+252.469+314.906+252.469+313.306L252.469+311.326C252.469+309.766+252.079+308.551+251.299+307.681C250.519+306.811+249.409+306.376+247.969+306.376C246.929+306.376+246.059+306.661+245.359+307.231C244.659+307.801+244.179+308.606+243.919+309.646L242.419+309.646L242.569+297.526L253.369+297.526L253.369+298.876L244.009+298.876L243.919+308.026C244.139+307.106+244.664+306.376+245.494+305.836C246.324+305.296+247.349+305.026+248.569+305.026C250.309+305.026+251.644+305.571+252.574+306.661C253.504+307.751+253.969+309.306+253.969+311.326L253.969+313.306C253.969+315.266+253.429+316.826+252.349+317.986C251.269+319.146+249.809+319.726+247.969+319.726Z" class="primary-fill"/>
			<path d="M314.464+319.691L314.464+314.591L304.414+314.591L304.414+311.591L312.994+297.821L314.584+297.821L305.914+311.981L305.914+313.241L314.464+313.241L314.464+307.091L315.964+307.091L315.964+319.691L314.464+319.691Z" class="primary-fill"/>
			<path d="M372.549+319.973C370.729+319.973+369.274+319.428+368.184+318.338C367.094+317.248+366.549+315.793+366.549+313.973L368.049+313.973C368.049+315.433+368.449+316.573+369.249+317.393C370.049+318.213+371.149+318.623+372.549+318.623C373.949+318.623+375.049+318.208+375.849+317.378C376.649+316.548+377.049+315.413+377.049+313.973L377.049+311.843C377.049+310.423+376.654+309.318+375.864+308.528C375.074+307.738+373.969+307.343+372.549+307.343L371.019+307.343L371.019+306.053L376.629+299.123L367.299+299.123L367.299+297.773L378.219+297.773L378.219+299.213L372.669+305.993C374.469+306.033+375.899+306.578+376.959+307.628C378.019+308.678+378.549+310.083+378.549+311.843L378.549+313.973C378.549+315.793+378.009+317.248+376.929+318.338C375.849+319.428+374.389+319.973+372.549+319.973Z" class="primary-fill"/>
			<path d="M429.66+319.939L429.66+318.439L436.62+311.269C437.98+309.869+438.98+308.579+439.62+307.399C440.26+306.219+440.58+305.039+440.58+303.859C440.58+302.379+440.14+301.209+439.26+300.349C438.38+299.489+437.19+299.059+435.69+299.059C434.19+299.059+433+299.494+432.12+300.364C431.24+301.234+430.8+302.409+430.8+303.889L429.3+303.889C429.3+302.009+429.88+300.514+431.04+299.404C432.2+298.294+433.75+297.739+435.69+297.739C437.65+297.739+439.205+298.284+440.355+299.374C441.505+300.464+442.08+301.929+442.08+303.769C442.08+305.109+441.705+306.464+440.955+307.834C440.205+309.204+439.08+310.659+437.58+312.199L431.31+318.589L442.68+318.589L442.68+319.939L429.66+319.939Z" class="primary-fill"/>
			<path d="M491.447+319.691L491.447+318.341L497.657+318.341L497.657+299.141L491.687+303.521L491.687+301.841L497.177+297.791L499.157+297.791L499.157+318.341L504.347+318.341L504.347+319.691L491.447+319.691Z" class="primary-fill"/>
			<path d="M560.316+319.973C558.376+319.973+556.851+319.398+555.741+318.248C554.631+317.098+554.076+315.523+554.076+313.523L554.076+303.923C554.076+301.923+554.631+300.348+555.741+299.198C556.851+298.048+558.376+297.473+560.316+297.473C562.236+297.473+563.746+298.043+564.846+299.183C565.946+300.323+566.496+301.903+566.496+303.923L566.496+313.523C566.496+315.523+565.946+317.098+564.846+318.248C563.746+319.398+562.236+319.973+560.316+319.973ZM560.316+318.473C561.736+318.473+562.846+318.033+563.646+317.153C564.446+316.273+564.846+315.063+564.846+313.523L564.846+303.923C564.846+302.383+564.446+301.173+563.646+300.293C562.846+299.413+561.736+298.973+560.316+298.973C558.896+298.973+557.776+299.413+556.956+300.293C556.136+301.173+555.726+302.383+555.726+303.923L555.726+313.523C555.726+315.043+556.136+316.248+556.956+317.138C557.776+318.028+558.896+318.473+560.316+318.473ZM560.286+310.133C559.846+310.133+559.486+309.993+559.206+309.713C558.926+309.433+558.786+309.073+558.786+308.633C558.786+308.173+558.926+307.808+559.206+307.538C559.486+307.268+559.846+307.133+560.286+307.133C560.746+307.133+561.111+307.268+561.381+307.538C561.651+307.808+561.786+308.173+561.786+308.633C561.786+309.073+561.651+309.433+561.381+309.713C561.111+309.993+560.746+310.133+560.286+310.133Z" class="primary-fill"/>
		</g>
		<g id="left-input">
			<g>
				<path d="M153.672+337.888L216.172+337.888L216.172+337.888L216.172+400.388L216.172+400.388L153.672+400.388L153.672+400.388L153.672+337.888L153.672+337.888Z" class="background-stroke light-fill"/>
				<path d="M185.286+380.213C183.866+380.213+182.636+379.943+181.596+379.403C180.556+378.863+179.751+378.103+179.181+377.123C178.611+376.143+178.326+374.993+178.326+373.673L178.326+364.253C178.326+362.933+178.611+361.783+179.181+360.803C179.751+359.823+180.556+359.063+181.596+358.523C182.636+357.983+183.866+357.713+185.286+357.713C186.706+357.713+187.936+357.983+188.976+358.523C190.016+359.063+190.821+359.823+191.391+360.803C191.961+361.783+192.246+362.933+192.246+364.253L192.246+373.673C192.246+374.993+191.961+376.143+191.391+377.123C190.821+378.103+190.016+378.863+188.976+379.403C187.936+379.943+186.706+380.213+185.286+380.213ZM185.286+376.973C186.326+376.973+187.156+376.673+187.776+376.073C188.396+375.473+188.706+374.673+188.706+373.673L188.706+364.253C188.706+363.253+188.401+362.453+187.791+361.853C187.181+361.253+186.346+360.953+185.286+360.953C184.226+360.953+183.391+361.253+182.781+361.853C182.171+362.453+181.866+363.253+181.866+364.253L181.866+373.673C181.866+374.673+182.176+375.473+182.796+376.073C183.416+376.673+184.246+376.973+185.286+376.973ZM185.286+370.913C184.686+370.913+184.206+370.723+183.846+370.343C183.486+369.963+183.306+369.473+183.306+368.873C183.306+368.273+183.486+367.793+183.846+367.433C184.206+367.073+184.686+366.893+185.286+366.893C185.886+366.893+186.366+367.073+186.726+367.433C187.086+367.793+187.266+368.273+187.266+368.873C187.266+369.473+187.086+369.963+186.726+370.343C186.366+370.723+185.886+370.913+185.286+370.913Z" class="primary-fill"/>
			</g>
			<g>
				<path  d="M216.172+337.888L278.672+337.888L278.672+337.888L278.672+400.388L278.672+400.388L216.172+400.388L216.172+400.388L216.172+337.888L216.172+337.888Z" class="background-stroke light-fill"/>
				<path d="M247.786+380.213C246.366+380.213+245.136+379.943+244.096+379.403C243.056+378.863+242.251+378.103+241.681+377.123C241.111+376.143+240.826+374.993+240.826+373.673L240.826+364.253C240.826+362.933+241.111+361.783+241.681+360.803C242.251+359.823+243.056+359.063+244.096+358.523C245.136+357.983+246.366+357.713+247.786+357.713C249.206+357.713+250.436+357.983+251.476+358.523C252.516+359.063+253.321+359.823+253.891+360.803C254.461+361.783+254.746+362.933+254.746+364.253L254.746+373.673C254.746+374.993+254.461+376.143+253.891+377.123C253.321+378.103+252.516+378.863+251.476+379.403C250.436+379.943+249.206+380.213+247.786+380.213ZM247.786+376.973C248.826+376.973+249.656+376.673+250.276+376.073C250.896+375.473+251.206+374.673+251.206+373.673L251.206+364.253C251.206+363.253+250.901+362.453+250.291+361.853C249.681+361.253+248.846+360.953+247.786+360.953C246.726+360.953+245.891+361.253+245.281+361.853C244.671+362.453+244.366+363.253+244.366+364.253L244.366+373.673C244.366+374.673+244.676+375.473+245.296+376.073C245.916+376.673+246.746+376.973+247.786+376.973ZM247.786+370.913C247.186+370.913+246.706+370.723+246.346+370.343C245.986+369.963+245.806+369.473+245.806+368.873C245.806+368.273+245.986+367.793+246.346+367.433C246.706+367.073+247.186+366.893+247.786+366.893C248.386+366.893+248.866+367.073+249.226+367.433C249.586+367.793+249.766+368.273+249.766+368.873C249.766+369.473+249.586+369.963+249.226+370.343C248.866+370.723+248.386+370.913+247.786+370.913Z" class="primary-fill"/>
			</g>
			<g>
				<path  d="M278.672+337.888L341.172+337.888L341.172+337.888L341.172+400.388L341.172+400.388L278.672+400.388L278.672+400.388L278.672+337.888L278.672+337.888Z" class="background-stroke light-fill"/>
				<path d="M303.467+379.932L303.467+376.632L309.167+376.632L309.167+361.362L303.437+365.622L303.437+361.662L308.477+358.032L312.917+358.032L312.917+376.632L317.507+376.632L317.507+379.932L303.467+379.932Z" class="primary-fill"/>
			</g>
			<g>
				<path  d="M341.172+337.888L403.672+337.888L403.672+337.888L403.672+400.388L403.672+400.388L341.172+400.388L341.172+400.388L341.172+337.888L341.172+337.888Z" class="background-stroke light-fill"/>
				<path d="M372.785+380.213C371.365+380.213+370.135+379.943+369.095+379.403C368.055+378.863+367.25+378.103+366.68+377.123C366.11+376.143+365.825+374.993+365.825+373.673L365.825+364.253C365.825+362.933+366.11+361.783+366.68+360.803C367.25+359.823+368.055+359.063+369.095+358.523C370.135+357.983+371.365+357.713+372.785+357.713C374.205+357.713+375.435+357.983+376.475+358.523C377.515+359.063+378.32+359.823+378.89+360.803C379.46+361.783+379.745+362.933+379.745+364.253L379.745+373.673C379.745+374.993+379.46+376.143+378.89+377.123C378.32+378.103+377.515+378.863+376.475+379.403C375.435+379.943+374.205+380.213+372.785+380.213ZM372.785+376.973C373.825+376.973+374.655+376.673+375.275+376.073C375.895+375.473+376.205+374.673+376.205+373.673L376.205+364.253C376.205+363.253+375.9+362.453+375.29+361.853C374.68+361.253+373.845+360.953+372.785+360.953C371.725+360.953+370.89+361.253+370.28+361.853C369.67+362.453+369.365+363.253+369.365+364.253L369.365+373.673C369.365+374.673+369.675+375.473+370.295+376.073C370.915+376.673+371.745+376.973+372.785+376.973ZM372.785+370.913C372.185+370.913+371.705+370.723+371.345+370.343C370.985+369.963+370.805+369.473+370.805+368.873C370.805+368.273+370.985+367.793+371.345+367.433C371.705+367.073+372.185+366.893+372.785+366.893C373.385+366.893+373.865+367.073+374.225+367.433C374.585+367.793+374.765+368.273+374.765+368.873C374.765+369.473+374.585+369.963+374.225+370.343C373.865+370.723+373.385+370.913+372.785+370.913Z" class="primary-fill"/>
			</g>
			<g>
				<path  d="M403.672+337.888L466.172+337.888L466.172+337.888L466.172+400.388L466.172+400.388L403.672+400.388L403.672+400.388L403.672+337.888L403.672+337.888Z" class="background-stroke light-fill"/>
				<path d="M428.467+379.932L428.467+376.632L434.167+376.632L434.167+361.362L428.437+365.622L428.437+361.662L433.477+358.032L437.917+358.032L437.917+376.632L442.507+376.632L442.507+379.932L428.467+379.932Z" class="primary-fill"/>
			</g>
			<g>
				<path  d="M466.172+337.888L528.672+337.888L528.672+337.888L528.672+400.388L528.672+400.388L466.172+400.388L466.172+400.388L466.172+337.888L466.172+337.888Z" class="background-stroke light-fill"/>
				<path d="M490.967+379.932L490.967+376.632L496.667+376.632L496.667+361.362L490.937+365.622L490.937+361.662L495.977+358.032L500.417+358.032L500.417+376.632L505.007+376.632L505.007+379.932L490.967+379.932Z" class="primary-fill"/>
			</g>
			<g>
				<path  d="M528.672+337.888L591.172+337.888L591.172+337.888L591.172+400.388L591.172+400.388L528.672+400.388L528.672+400.388L528.672+337.888L528.672+337.888Z" class="background-stroke light-fill"/>
				<path d="M553.466+379.932L553.466+376.632L559.166+376.632L559.166+361.362L553.436+365.622L553.436+361.662L558.476+358.032L562.916+358.032L562.916+376.632L567.506+376.632L567.506+379.932L553.466+379.932Z" class="primary-fill"/>
			</g>
			<g>
				<path d="M91.172+337.888L153.672+337.888L153.672+337.888L153.672+400.388L153.672+400.388L91.172+400.388L91.172+400.388L91.172+337.888L91.172+337.888Z" class="primary-stroke light-fill"/>
				<path d="M122.785+380.213C121.365+380.213+120.135+379.943+119.095+379.403C118.055+378.863+117.25+378.103+116.68+377.123C116.11+376.143+115.825+374.993+115.825+373.673L115.825+364.253C115.825+362.933+116.11+361.783+116.68+360.803C117.25+359.823+118.055+359.063+119.095+358.523C120.135+357.983+121.365+357.713+122.785+357.713C124.206+357.713+125.436+357.983+126.476+358.523C127.516+359.063+128.321+359.823+128.891+360.803C129.461+361.783+129.746+362.933+129.746+364.253L129.746+373.673C129.746+374.993+129.461+376.143+128.891+377.123C128.321+378.103+127.516+378.863+126.476+379.403C125.436+379.943+124.206+380.213+122.785+380.213ZM122.785+376.973C123.826+376.973+124.655+376.673+125.276+376.073C125.896+375.473+126.206+374.673+126.206+373.673L126.206+364.253C126.206+363.253+125.901+362.453+125.291+361.853C124.68+361.253+123.846+360.953+122.785+360.953C121.725+360.953+120.89+361.253+120.28+361.853C119.67+362.453+119.365+363.253+119.365+364.253L119.365+373.673C119.365+374.673+119.675+375.473+120.295+376.073C120.915+376.673+121.745+376.973+122.785+376.973ZM122.785+370.913C122.185+370.913+121.705+370.723+121.345+370.343C120.985+369.963+120.805+369.473+120.805+368.873C120.805+368.273+120.985+367.793+121.345+367.433C121.705+367.073+122.185+366.893+122.785+366.893C123.385+366.893+123.865+367.073+124.225+367.433C124.586+367.793+124.766+368.273+124.766+368.873C124.766+369.473+124.586+369.963+124.225+370.343C123.865+370.723+123.385+370.913+122.785+370.913Z" class="primary-fill"/>
			</g>
		</g>
		<g id="left-result" transform="translate(0, -2)">
			<g>
				<path  d="M91.172+526.95L153.672+526.95L153.672+526.95L153.672+589.45L153.672+589.45L91.172+589.45L91.172+589.45L91.172+526.95L91.172+526.95Z" class="background-stroke light-fill"/>
				<path d="M122.785+570.276C121.365+570.276+120.135+570.006+119.095+569.466C118.055+568.926+117.25+568.166+116.68+567.186C116.11+566.206+115.825+565.056+115.825+563.736L115.825+554.316C115.825+552.996+116.11+551.846+116.68+550.866C117.25+549.886+118.055+549.126+119.095+548.586C120.135+548.046+121.365+547.776+122.785+547.776C124.206+547.776+125.436+548.046+126.476+548.586C127.516+549.126+128.321+549.886+128.891+550.866C129.461+551.846+129.746+552.996+129.746+554.316L129.746+563.736C129.746+565.056+129.461+566.206+128.891+567.186C128.321+568.166+127.516+568.926+126.476+569.466C125.436+570.006+124.206+570.276+122.785+570.276ZM122.785+567.036C123.826+567.036+124.655+566.736+125.276+566.136C125.896+565.536+126.206+564.736+126.206+563.736L126.206+554.316C126.206+553.316+125.901+552.516+125.291+551.916C124.68+551.316+123.846+551.016+122.785+551.016C121.725+551.016+120.89+551.316+120.28+551.916C119.67+552.516+119.365+553.316+119.365+554.316L119.365+563.736C119.365+564.736+119.675+565.536+120.295+566.136C120.915+566.736+121.745+567.036+122.785+567.036ZM122.785+560.976C122.185+560.976+121.705+560.786+121.345+560.406C120.985+560.026+120.805+559.536+120.805+558.936C120.805+558.336+120.985+557.856+121.345+557.496C121.705+557.136+122.185+556.956+122.785+556.956C123.385+556.956+123.865+557.136+124.225+557.496C124.586+557.856+124.766+558.336+124.766+558.936C124.766+559.536+124.586+560.026+124.225+560.406C123.865+560.786+123.385+560.976+122.785+560.976Z" class="primary-fill"/>
			</g>
			<g>
				<path  d="M153.672+526.95L216.172+526.95L216.172+526.95L216.172+589.45L216.172+589.45L153.672+589.45L153.672+589.45L153.672+526.95L153.672+526.95Z" class="background-stroke light-fill"/>
				<path d="M185.286+570.276C183.866+570.276+182.636+570.006+181.596+569.466C180.556+568.926+179.751+568.166+179.181+567.186C178.611+566.206+178.326+565.056+178.326+563.736L178.326+554.316C178.326+552.996+178.611+551.846+179.181+550.866C179.751+549.886+180.556+549.126+181.596+548.586C182.636+548.046+183.866+547.776+185.286+547.776C186.706+547.776+187.936+548.046+188.976+548.586C190.016+549.126+190.821+549.886+191.391+550.866C191.961+551.846+192.246+552.996+192.246+554.316L192.246+563.736C192.246+565.056+191.961+566.206+191.391+567.186C190.821+568.166+190.016+568.926+188.976+569.466C187.936+570.006+186.706+570.276+185.286+570.276ZM185.286+567.036C186.326+567.036+187.156+566.736+187.776+566.136C188.396+565.536+188.706+564.736+188.706+563.736L188.706+554.316C188.706+553.316+188.401+552.516+187.791+551.916C187.181+551.316+186.346+551.016+185.286+551.016C184.226+551.016+183.391+551.316+182.781+551.916C182.171+552.516+181.866+553.316+181.866+554.316L181.866+563.736C181.866+564.736+182.176+565.536+182.796+566.136C183.416+566.736+184.246+567.036+185.286+567.036ZM185.286+560.976C184.686+560.976+184.206+560.786+183.846+560.406C183.486+560.026+183.306+559.536+183.306+558.936C183.306+558.336+183.486+557.856+183.846+557.496C184.206+557.136+184.686+556.956+185.286+556.956C185.886+556.956+186.366+557.136+186.726+557.496C187.086+557.856+187.266+558.336+187.266+558.936C187.266+559.536+187.086+560.026+186.726+560.406C186.366+560.786+185.886+560.976+185.286+560.976Z" class="primary-fill"/>
			</g>
			<g>
				<path  d="M216.172+526.95L278.672+526.95L278.672+526.95L278.672+589.45L278.672+589.45L216.172+589.45L216.172+589.45L216.172+526.95L216.172+526.95Z" class="background-stroke light-fill"/>
				<path d="M240.967+569.994L240.967+566.694L246.667+566.694L246.667+551.424L240.937+555.684L240.937+551.724L245.977+548.094L250.417+548.094L250.417+566.694L255.007+566.694L255.007+569.994L240.967+569.994Z" class="primary-fill"/>
			</g>
			<g>
				<path  d="M278.672+526.95L341.172+526.95L341.172+526.95L341.172+589.45L341.172+589.45L278.672+589.45L278.672+589.45L278.672+526.95L278.672+526.95Z" class="background-stroke light-fill"/>
				<path d="M310.285+570.276C308.865+570.276+307.635+570.006+306.595+569.466C305.555+568.926+304.75+568.166+304.18+567.186C303.61+566.206+303.325+565.056+303.325+563.736L303.325+554.316C303.325+552.996+303.61+551.846+304.18+550.866C304.75+549.886+305.555+549.126+306.595+548.586C307.635+548.046+308.865+547.776+310.285+547.776C311.705+547.776+312.935+548.046+313.975+548.586C315.015+549.126+315.82+549.886+316.39+550.866C316.96+551.846+317.245+552.996+317.245+554.316L317.245+563.736C317.245+565.056+316.96+566.206+316.39+567.186C315.82+568.166+315.015+568.926+313.975+569.466C312.935+570.006+311.705+570.276+310.285+570.276ZM310.285+567.036C311.325+567.036+312.155+566.736+312.775+566.136C313.395+565.536+313.705+564.736+313.705+563.736L313.705+554.316C313.705+553.316+313.4+552.516+312.79+551.916C312.18+551.316+311.345+551.016+310.285+551.016C309.225+551.016+308.39+551.316+307.78+551.916C307.17+552.516+306.865+553.316+306.865+554.316L306.865+563.736C306.865+564.736+307.175+565.536+307.795+566.136C308.415+566.736+309.245+567.036+310.285+567.036ZM310.285+560.976C309.685+560.976+309.205+560.786+308.845+560.406C308.485+560.026+308.305+559.536+308.305+558.936C308.305+558.336+308.485+557.856+308.845+557.496C309.205+557.136+309.685+556.956+310.285+556.956C310.885+556.956+311.365+557.136+311.725+557.496C312.085+557.856+312.265+558.336+312.265+558.936C312.265+559.536+312.085+560.026+311.725+560.406C311.365+560.786+310.885+560.976+310.285+560.976Z" class="primary-fill"/>
			</g>
			<g>
				<path  d="M341.172+526.95L403.672+526.95L403.672+526.95L403.672+589.45L403.672+589.45L341.172+589.45L341.172+589.45L341.172+526.95L341.172+526.95Z" class="background-stroke light-fill"/>
				<path d="M365.967+569.994L365.967+566.694L371.667+566.694L371.667+551.424L365.937+555.684L365.937+551.724L370.977+548.094L375.417+548.094L375.417+566.694L380.007+566.694L380.007+569.994L365.967+569.994Z" class="primary-fill"/>
			</g>
			<g>
				<path  d="M403.672+526.95L466.172+526.95L466.172+526.95L466.172+589.45L466.172+589.45L403.672+589.45L403.672+589.45L403.672+526.95L403.672+526.95Z" class="background-stroke light-fill"/>
				<path d="M428.467+569.994L428.467+566.694L434.167+566.694L434.167+551.424L428.437+555.684L428.437+551.724L433.477+548.094L437.917+548.094L437.917+566.694L442.507+566.694L442.507+569.994L428.467+569.994Z" class="primary-fill"/>
			</g>
			<g>
				<path  d="M466.172+526.95L528.672+526.95L528.672+526.95L528.672+589.45L528.672+589.45L466.172+589.45L466.172+589.45L466.172+526.95L466.172+526.95Z" class="background-stroke light-fill"/>
				<path d="M491.967+569.994L491.967+566.694L497.667+566.694L497.667+551.424L491.937+555.684L491.937+551.724L496.977+548.094L501.417+548.094L501.417+566.694L506.007+566.694L506.007+569.994L491.967+569.994Z" class="primary-fill"/>
			</g>
			<g>
				<path d="M528.672+526.95L591.172+526.95L591.172+526.95L591.172+589.45L591.172+589.45L528.672+589.45L528.672+589.45L528.672+526.95L528.672+526.95Z" class="primary-stroke light-fill"/>
				<path d="M559.946+570.294C558.526+570.294+557.296+570.024+556.256+569.484C555.216+568.944+554.411+568.184+553.841+567.204C553.271+566.224+552.986+565.074+552.986+563.754L552.986+554.334C552.986+553.014+553.271+551.864+553.841+550.884C554.411+549.904+555.216+549.144+556.256+548.604C557.296+548.064+558.526+547.794+559.946+547.794C561.366+547.794+562.596+548.064+563.636+548.604C564.676+549.144+565.481+549.904+566.051+550.884C566.621+551.864+566.906+553.014+566.906+554.334L566.906+563.754C566.906+565.074+566.621+566.224+566.051+567.204C565.481+568.184+564.676+568.944+563.636+569.484C562.596+570.024+561.366+570.294+559.946+570.294ZM559.946+567.054C560.986+567.054+561.816+566.754+562.436+566.154C563.056+565.554+563.366+564.754+563.366+563.754L563.366+554.334C563.366+553.334+563.061+552.534+562.451+551.934C561.841+551.334+561.006+551.034+559.946+551.034C558.886+551.034+558.051+551.334+557.441+551.934C556.831+552.534+556.526+553.334+556.526+554.334L556.526+563.754C556.526+564.754+556.836+565.554+557.456+566.154C558.076+566.754+558.906+567.054+559.946+567.054ZM559.946+560.994C559.346+560.994+558.866+560.804+558.506+560.424C558.146+560.044+557.966+559.554+557.966+558.954C557.966+558.354+558.146+557.874+558.506+557.514C558.866+557.154+559.346+556.974+559.946+556.974C560.546+556.974+561.026+557.154+561.386+557.514C561.746+557.874+561.926+558.354+561.926+558.954C561.926+559.554+561.746+560.044+561.386+560.424C561.026+560.804+560.546+560.994+559.946+560.994Z" class="primary-fill"/>
			</g>
		</g>
		<g id="left-arrows">
			<g>
				<path d="M183.555+397.704C152.305+458.878+136.68+489.442+128.867+504.735C124.961+512.382+123.008+516.203+122.031+518.114C121.543+519.07+121.275+519.536+121.152+519.775C121.091+519.894+121.07+519.94+121.055+519.97C121.047+519.985+121.057+520.064+121.055+520.067L122.422+520.751L123.789+521.435C123.789+521.435+123.789+521.419+186.289+399.071L183.555+397.704Z" class="light-fill"/>
				<path d="M149.968+497.293L120.583+524.456L125.37+484.727C129.902+493.78+139.852+498.824+149.968+497.293Z" class="light-fill"/>
			</g>
			<g>
				<path d="M561.973+397.704C530.723+458.878+515.098+489.442+507.285+504.735C503.379+512.382+501.426+516.203+500.449+518.114C499.961+519.07+499.692+519.536+499.57+519.775C499.509+519.894+499.488+519.94+499.473+519.97C499.465+519.985+499.475+520.064+499.473+520.067L500.84+520.751L502.207+521.435C502.207+521.435+502.207+521.419+564.707+399.071L561.973+397.704Z" class="light-fill"/>
				<path d="M528.399+497.293L499.015+524.456L503.801+484.727C508.333+493.78+518.284+498.824+528.399+497.293Z" class="light-fill"/>
			</g>
			<g>
				<path d="M499.473+397.216C468.223+458.39+452.598+488.954+444.785+504.247C440.879+511.894+438.926+515.714+437.949+517.626C437.461+518.582+437.192+519.047+437.07+519.286C437.009+519.406+436.988+519.452+436.973+519.482C436.965+519.496+436.975+519.575+436.973+519.579L438.34+520.263L439.707+520.946C439.707+520.946+439.707+520.931+502.207+398.583L499.473+397.216Z" class="light-fill"/>
				<path d="M465.899+496.82L436.515+523.984L441.301+484.254C445.833+493.307+455.784+498.351+465.899+496.82Z" class="light-fill"/>
			</g>
			<g>
				<path d="M436.973+397.216C405.723+458.39+390.098+488.954+382.285+504.247C378.379+511.894+376.426+515.714+375.449+517.626C374.961+518.582+374.692+519.047+374.57+519.286C374.509+519.406+374.488+519.452+374.473+519.482C374.465+519.496+374.475+519.575+374.473+519.579L375.84+520.263L377.207+520.946C377.207+520.946+377.207+520.931+439.707+398.583L436.973+397.216Z" class="light-fill"/>
				<path d="M403.399+496.82L374.015+523.984L378.801+484.254C383.333+493.307+393.284+498.351+403.399+496.82Z" class="light-fill"/>
			</g>
			<g>
				<path d="M374.473+397.216C343.223+458.39+327.598+488.954+319.785+504.247C315.879+511.894+313.926+515.714+312.949+517.626C312.461+518.582+312.192+519.047+312.07+519.286C312.009+519.406+311.988+519.452+311.973+519.482C311.965+519.496+311.975+519.575+311.973+519.579L313.34+520.263L314.707+520.946C314.707+520.946+314.707+520.931+377.207+398.583L374.473+397.216Z" class="light-fill"/>
				<path d="M340.899+496.82L311.515+523.984L316.301+484.254C320.833+493.307+330.784+498.351+340.899+496.82Z" class="light-fill"/>
			</g>
			<g>
				<path d="M311.973+397.216C280.723+458.39+265.098+488.954+257.285+504.247C253.379+511.894+251.426+515.714+250.449+517.626C249.961+518.582+249.692+519.047+249.57+519.286C249.509+519.406+249.488+519.452+249.473+519.482C249.465+519.496+249.475+519.575+249.473+519.579L250.84+520.263L252.207+520.946C252.207+520.946+252.207+520.931+314.707+398.583L311.973+397.216Z" class="light-fill"/>
				<path d="M278.399+496.82L249.015+523.984L253.801+484.254C258.333+493.307+268.284+498.351+278.399+496.82Z" class="light-fill"/>
			</g>
			<g>
				<path d="M249.473+397.704C218.223+458.878+202.598+489.442+194.785+504.735C190.879+512.382+188.926+516.203+187.949+518.114C187.461+519.07+187.192+519.536+187.07+519.775C187.009+519.894+186.988+519.94+186.973+519.97C186.965+519.985+186.975+520.064+186.973+520.067L188.34+520.751L189.707+521.435C189.707+521.435+189.707+521.419+252.207+399.071L249.473+397.704Z" class="light-fill"/>
				<path d="M215.899+497.293L186.515+524.456L191.301+484.727C195.833+493.78+205.784+498.824+215.899+497.293Z" class="light-fill"/>
			</g>
		</g>
		<g id="left-no-carry-arrow" transform="translate(0,-1)">
			<path d="M121.152+400.388L121.152+434.918L121.152+436.505L122.471+436.505L556.266+436.505L556.266+521.142L558.903+521.142L558.903+434.918L558.903+433.33L557.585+433.33L123.79+433.33L123.79+400.388L121.152+400.388Z" class="primary-fill"/>
			<path d="M569.297+487.228L557.643+525.388L545.988+487.228C552.869+493.324+562.283+493.289+569.297+487.228Z" class="primary-fill" transform="translate(0,-1)"/>
		</g>
	</g>
	<g id="rotr">
		<g id="right-operator" transform="translate(0, -12)">
			<path d="M896.097+196.47L896.097+189.11L914.657+180.534C915.51+180.15+916.353+179.83+917.185+179.574C918.017+179.318+918.668+179.126+919.137+178.998C918.668+178.913+918.006+178.753+917.153+178.518C916.3+178.283+915.468+177.974+914.657+177.59L896.097+168.95L896.097+161.462L924.769+174.966L924.769+182.966L896.097+196.47ZM928.097+196.47L928.097+189.11L946.657+180.534C947.51+180.15+948.353+179.83+949.185+179.574C950.017+179.318+950.668+179.126+951.137+178.998C950.668+178.913+950.006+178.753+949.153+178.518C948.3+178.283+947.468+177.974+946.657+177.59L928.097+168.95L928.097+161.462L956.769+174.966L956.769+182.966L928.097+196.47ZM960.097+196.47L960.097+189.11L978.657+180.534C979.51+180.15+980.353+179.83+981.185+179.574C982.017+179.318+982.668+179.126+983.137+178.998C982.668+178.913+982.006+178.753+981.153+178.518C980.3+178.283+979.468+177.974+978.657+177.59L960.097+168.95L960.097+161.462L988.769+174.966L988.769+182.966L960.097+196.47Z" class="primary-fill"/>
		</g>
		<g id="right-bit-numbers">
			<path d="M720.045+321.254L728.085+300.884L717.915+300.884L717.915+305.354L716.265+305.354L716.265+299.354L729.615+299.354L729.615+301.004L721.755+321.254L720.045+321.254Z" class="primary-fill"/>
			<path d="M785.172+321.536C783.852+321.536+782.697+321.246+781.707+320.666C780.717+320.086+779.942+319.281+779.382+318.251C778.822+317.221+778.542+316.016+778.542+314.636C778.542+313.696+778.717+312.761+779.067+311.831C779.417+310.901+779.852+309.976+780.372+309.056L785.952+299.336L787.632+299.336L781.482+309.626L781.602+309.716C781.902+309.356+782.422+309.001+783.162+308.651C783.902+308.301+784.772+308.126+785.772+308.126C786.972+308.126+788.027+308.406+788.937+308.966C789.847+309.526+790.552+310.301+791.052+311.291C791.552+312.281+791.802+313.446+791.802+314.786C791.802+316.126+791.527+317.301+790.977+318.311C790.427+319.321+789.652+320.106+788.652+320.666C787.652+321.226+786.492+321.516+785.172+321.536ZM785.172+320.186C786.712+320.186+787.952+319.701+788.892+318.731C789.832+317.761+790.302+316.446+790.302+314.786C790.302+313.726+790.087+312.791+789.657+311.981C789.227+311.171+788.627+310.536+787.857+310.076C787.087+309.616+786.192+309.386+785.172+309.386C784.152+309.386+783.262+309.616+782.502+310.076C781.742+310.536+781.147+311.171+780.717+311.981C780.287+312.791+780.062+313.726+780.042+314.786C780.002+316.446+780.452+317.761+781.392+318.731C782.332+319.701+783.592+320.186+785.172+320.186Z" class="primary-fill"/>
			<path d="M847.994+321.288C846.234+321.288+844.824+320.818+843.764+319.878C842.704+318.938+842.114+317.648+841.994+316.008L843.494+316.008C843.574+317.228+844.004+318.188+844.784+318.888C845.564+319.588+846.634+319.938+847.994+319.938C849.414+319.938+850.519+319.493+851.309+318.603C852.099+317.713+852.494+316.468+852.494+314.868L852.494+312.888C852.494+311.328+852.104+310.113+851.324+309.243C850.544+308.373+849.434+307.938+847.994+307.938C846.954+307.938+846.084+308.223+845.384+308.793C844.684+309.363+844.204+310.168+843.944+311.208L842.444+311.208L842.594+299.088L853.394+299.088L853.394+300.438L844.034+300.438L843.944+309.588C844.164+308.668+844.689+307.938+845.519+307.398C846.349+306.858+847.374+306.588+848.594+306.588C850.334+306.588+851.669+307.133+852.599+308.223C853.529+309.313+853.994+310.868+853.994+312.888L853.994+314.868C853.994+316.828+853.454+318.388+852.374+319.548C851.294+320.708+849.834+321.288+847.994+321.288Z" class="primary-fill"/>
			<path d="M914.488+321.254L914.488+316.154L904.438+316.154L904.438+313.154L913.018+299.384L914.608+299.384L905.938+313.544L905.938+314.804L914.488+314.804L914.488+308.654L915.988+308.654L915.988+321.254L914.488+321.254Z" class="primary-fill"/>
			<path d="M972.575+321.536C970.755+321.536+969.3+320.991+968.21+319.901C967.12+318.811+966.575+317.356+966.575+315.536L968.075+315.536C968.075+316.996+968.475+318.136+969.275+318.956C970.075+319.776+971.175+320.186+972.575+320.186C973.975+320.186+975.075+319.771+975.875+318.941C976.675+318.111+977.075+316.976+977.075+315.536L977.075+313.406C977.075+311.986+976.68+310.881+975.89+310.091C975.1+309.301+973.995+308.906+972.575+308.906L971.045+308.906L971.045+307.616L976.655+300.686L967.325+300.686L967.325+299.336L978.245+299.336L978.245+300.776L972.695+307.556C974.495+307.596+975.925+308.141+976.985+309.191C978.045+310.241+978.575+311.646+978.575+313.406L978.575+315.536C978.575+317.356+978.035+318.811+976.955+319.901C975.875+320.991+974.415+321.536+972.575+321.536Z" class="primary-fill"/>
			<path d="M1029.69+321.501L1029.69+320.001L1036.65+312.831C1038.01+311.431+1039.01+310.141+1039.65+308.961C1040.29+307.781+1040.61+306.601+1040.61+305.421C1040.61+303.941+1040.17+302.771+1039.29+301.911C1038.41+301.051+1037.22+300.621+1035.72+300.621C1034.22+300.621+1033.03+301.056+1032.15+301.926C1031.27+302.796+1030.83+303.971+1030.83+305.451L1029.33+305.451C1029.33+303.571+1029.91+302.076+1031.07+300.966C1032.23+299.856+1033.78+299.301+1035.72+299.301C1037.68+299.301+1039.23+299.846+1040.38+300.936C1041.53+302.026+1042.11+303.491+1042.11+305.331C1042.11+306.671+1041.73+308.026+1040.98+309.396C1040.23+310.766+1039.11+312.221+1037.61+313.761L1031.34+320.151L1042.71+320.151L1042.71+321.501L1029.69+321.501Z" class="primary-fill"/>
			<path d="M1090.74+321.254L1090.74+319.904L1096.95+319.904L1096.95+300.704L1090.98+305.084L1090.98+303.404L1096.47+299.354L1098.45+299.354L1098.45+319.904L1103.64+319.904L1103.64+321.254L1090.74+321.254Z" class="primary-fill"/>
			<path d="M1159.6+321.536C1157.66+321.536+1156.13+320.961+1155.02+319.811C1153.91+318.661+1153.36+317.086+1153.36+315.086L1153.36+305.486C1153.36+303.486+1153.91+301.911+1155.02+300.761C1156.13+299.611+1157.66+299.036+1159.6+299.036C1161.52+299.036+1163.03+299.606+1164.13+300.746C1165.23+301.886+1165.78+303.466+1165.78+305.486L1165.78+315.086C1165.78+317.086+1165.23+318.661+1164.13+319.811C1163.03+320.961+1161.52+321.536+1159.6+321.536ZM1159.6+320.036C1161.02+320.036+1162.13+319.596+1162.93+318.716C1163.73+317.836+1164.13+316.626+1164.13+315.086L1164.13+305.486C1164.13+303.946+1163.73+302.736+1162.93+301.856C1162.13+300.976+1161.02+300.536+1159.6+300.536C1158.18+300.536+1157.06+300.976+1156.24+301.856C1155.42+302.736+1155.01+303.946+1155.01+305.486L1155.01+315.086C1155.01+316.606+1155.42+317.811+1156.24+318.701C1157.06+319.591+1158.18+320.036+1159.6+320.036ZM1159.57+311.696C1159.13+311.696+1158.77+311.556+1158.49+311.276C1158.21+310.996+1158.07+310.636+1158.07+310.196C1158.07+309.736+1158.21+309.371+1158.49+309.101C1158.77+308.831+1159.13+308.696+1159.57+308.696C1160.03+308.696+1160.39+308.831+1160.66+309.101C1160.93+309.371+1161.07+309.736+1161.07+310.196C1161.07+310.636+1160.93+310.996+1160.66+311.276C1160.39+311.556+1160.03+311.696+1159.57+311.696Z" class="primary-fill"/>
		</g>
		<g id="right-input">
			<g>
				<path  d="M691.197+339.45L753.697+339.45L753.697+339.45L753.697+401.95L753.697+401.95L691.197+401.95L691.197+401.95L691.197+339.45L691.197+339.45Z" class="background-stroke light-fill"/>
				<path d="M722.81+381.776C721.39+381.776+720.16+381.506+719.12+380.966C718.08+380.426+717.275+379.666+716.705+378.686C716.135+377.706+715.85+376.556+715.85+375.236L715.85+365.816C715.85+364.496+716.135+363.346+716.705+362.366C717.275+361.386+718.08+360.626+719.12+360.086C720.16+359.546+721.39+359.276+722.81+359.276C724.23+359.276+725.46+359.546+726.5+360.086C727.54+360.626+728.345+361.386+728.915+362.366C729.485+363.346+729.77+364.496+729.77+365.816L729.77+375.236C729.77+376.556+729.485+377.706+728.915+378.686C728.345+379.666+727.54+380.426+726.5+380.966C725.46+381.506+724.23+381.776+722.81+381.776ZM722.81+378.536C723.85+378.536+724.68+378.236+725.3+377.636C725.92+377.036+726.23+376.236+726.23+375.236L726.23+365.816C726.23+364.816+725.925+364.016+725.315+363.416C724.705+362.816+723.87+362.516+722.81+362.516C721.75+362.516+720.915+362.816+720.305+363.416C719.695+364.016+719.39+364.816+719.39+365.816L719.39+375.236C719.39+376.236+719.7+377.036+720.32+377.636C720.94+378.236+721.77+378.536+722.81+378.536ZM722.81+372.476C722.21+372.476+721.73+372.286+721.37+371.906C721.01+371.526+720.83+371.036+720.83+370.436C720.83+369.836+721.01+369.356+721.37+368.996C721.73+368.636+722.21+368.456+722.81+368.456C723.41+368.456+723.89+368.636+724.25+368.996C724.61+369.356+724.79+369.836+724.79+370.436C724.79+371.036+724.61+371.526+724.25+371.906C723.89+372.286+723.41+372.476+722.81+372.476Z" class="primary-fill"/>
			</g>
			<g>
				<path  d="M753.697+339.45L816.197+339.45L816.197+339.45L816.197+401.95L816.197+401.95L753.697+401.95L753.697+401.95L753.697+339.45L753.697+339.45Z" class="background-stroke light-fill"/>
				<path d="M785.31+381.776C783.89+381.776+782.66+381.506+781.62+380.966C780.58+380.426+779.775+379.666+779.205+378.686C778.635+377.706+778.35+376.556+778.35+375.236L778.35+365.816C778.35+364.496+778.635+363.346+779.205+362.366C779.775+361.386+780.58+360.626+781.62+360.086C782.66+359.546+783.89+359.276+785.31+359.276C786.73+359.276+787.96+359.546+789+360.086C790.04+360.626+790.845+361.386+791.415+362.366C791.985+363.346+792.27+364.496+792.27+365.816L792.27+375.236C792.27+376.556+791.985+377.706+791.415+378.686C790.845+379.666+790.04+380.426+789+380.966C787.96+381.506+786.73+381.776+785.31+381.776ZM785.31+378.536C786.35+378.536+787.18+378.236+787.8+377.636C788.42+377.036+788.73+376.236+788.73+375.236L788.73+365.816C788.73+364.816+788.425+364.016+787.815+363.416C787.205+362.816+786.37+362.516+785.31+362.516C784.25+362.516+783.415+362.816+782.805+363.416C782.195+364.016+781.89+364.816+781.89+365.816L781.89+375.236C781.89+376.236+782.2+377.036+782.82+377.636C783.44+378.236+784.27+378.536+785.31+378.536ZM785.31+372.476C784.71+372.476+784.23+372.286+783.87+371.906C783.51+371.526+783.33+371.036+783.33+370.436C783.33+369.836+783.51+369.356+783.87+368.996C784.23+368.636+784.71+368.456+785.31+368.456C785.91+368.456+786.39+368.636+786.75+368.996C787.11+369.356+787.29+369.836+787.29+370.436C787.29+371.036+787.11+371.526+786.75+371.906C786.39+372.286+785.91+372.476+785.31+372.476Z" class="primary-fill"/>
			</g>
			<g>
				<path  d="M816.197+339.45L878.697+339.45L878.697+339.45L878.697+401.95L878.697+401.95L816.197+401.95L816.197+401.95L816.197+339.45L816.197+339.45Z" class="background-stroke light-fill"/>
				<path d="M847.81+381.776C846.39+381.776+845.16+381.506+844.12+380.966C843.08+380.426+842.275+379.666+841.705+378.686C841.135+377.706+840.85+376.556+840.85+375.236L840.85+365.816C840.85+364.496+841.135+363.346+841.705+362.366C842.275+361.386+843.08+360.626+844.12+360.086C845.16+359.546+846.39+359.276+847.81+359.276C849.23+359.276+850.46+359.546+851.5+360.086C852.54+360.626+853.345+361.386+853.915+362.366C854.485+363.346+854.77+364.496+854.77+365.816L854.77+375.236C854.77+376.556+854.485+377.706+853.915+378.686C853.345+379.666+852.54+380.426+851.5+380.966C850.46+381.506+849.23+381.776+847.81+381.776ZM847.81+378.536C848.85+378.536+849.68+378.236+850.3+377.636C850.92+377.036+851.23+376.236+851.23+375.236L851.23+365.816C851.23+364.816+850.925+364.016+850.315+363.416C849.705+362.816+848.87+362.516+847.81+362.516C846.75+362.516+845.915+362.816+845.305+363.416C844.695+364.016+844.39+364.816+844.39+365.816L844.39+375.236C844.39+376.236+844.7+377.036+845.32+377.636C845.94+378.236+846.77+378.536+847.81+378.536ZM847.81+372.476C847.21+372.476+846.73+372.286+846.37+371.906C846.01+371.526+845.83+371.036+845.83+370.436C845.83+369.836+846.01+369.356+846.37+368.996C846.73+368.636+847.21+368.456+847.81+368.456C848.41+368.456+848.89+368.636+849.25+368.996C849.61+369.356+849.79+369.836+849.79+370.436C849.79+371.036+849.61+371.526+849.25+371.906C848.89+372.286+848.41+372.476+847.81+372.476Z" class="primary-fill"/>
			</g>
			<g>
				<path  d="M878.697+339.45L941.197+339.45L941.197+339.45L941.197+401.95L941.197+401.95L878.697+401.95L878.697+401.95L878.697+339.45L878.697+339.45Z" class="background-stroke light-fill"/>
				<path d="M903.491+381.494L903.491+378.194L909.191+378.194L909.191+362.924L903.461+367.184L903.461+363.224L908.501+359.594L912.941+359.594L912.941+378.194L917.531+378.194L917.531+381.494L903.491+381.494Z" class="primary-fill"/>
			</g>
			<g>
				<path  d="M941.197+339.45L1003.7+339.45L1003.7+339.45L1003.7+401.95L1003.7+401.95L941.197+401.95L941.197+401.95L941.197+339.45L941.197+339.45Z" class="background-stroke light-fill"/>
				<path d="M972.81+381.776C971.39+381.776+970.16+381.506+969.12+380.966C968.08+380.426+967.275+379.666+966.705+378.686C966.135+377.706+965.85+376.556+965.85+375.236L965.85+365.816C965.85+364.496+966.135+363.346+966.705+362.366C967.275+361.386+968.08+360.626+969.12+360.086C970.16+359.546+971.39+359.276+972.81+359.276C974.23+359.276+975.46+359.546+976.5+360.086C977.54+360.626+978.345+361.386+978.915+362.366C979.485+363.346+979.77+364.496+979.77+365.816L979.77+375.236C979.77+376.556+979.485+377.706+978.915+378.686C978.345+379.666+977.54+380.426+976.5+380.966C975.46+381.506+974.23+381.776+972.81+381.776ZM972.81+378.536C973.85+378.536+974.68+378.236+975.3+377.636C975.92+377.036+976.23+376.236+976.23+375.236L976.23+365.816C976.23+364.816+975.925+364.016+975.315+363.416C974.705+362.816+973.87+362.516+972.81+362.516C971.75+362.516+970.915+362.816+970.305+363.416C969.695+364.016+969.39+364.816+969.39+365.816L969.39+375.236C969.39+376.236+969.7+377.036+970.32+377.636C970.94+378.236+971.77+378.536+972.81+378.536ZM972.81+372.476C972.21+372.476+971.73+372.286+971.37+371.906C971.01+371.526+970.83+371.036+970.83+370.436C970.83+369.836+971.01+369.356+971.37+368.996C971.73+368.636+972.21+368.456+972.81+368.456C973.41+368.456+973.89+368.636+974.25+368.996C974.61+369.356+974.79+369.836+974.79+370.436C974.79+371.036+974.61+371.526+974.25+371.906C973.89+372.286+973.41+372.476+972.81+372.476Z" class="primary-fill"/>
			</g>
			<g>
				<path  d="M1003.7+339.45L1066.2+339.45L1066.2+339.45L1066.2+401.95L1066.2+401.95L1003.7+401.95L1003.7+401.95L1003.7+339.45L1003.7+339.45Z" class="background-stroke light-fill"/>
				<path d="M1028.49+381.494L1028.49+378.194L1034.19+378.194L1034.19+362.924L1028.46+367.184L1028.46+363.224L1033.5+359.594L1037.94+359.594L1037.94+378.194L1042.53+378.194L1042.53+381.494L1028.49+381.494Z" class="primary-fill"/>
			</g>
			<g>
				<path  d="M1065.46+339.45L1127.96+339.45L1127.96+339.45L1127.96+401.95L1127.96+401.95L1065.46+401.95L1065.46+401.95L1065.46+339.45L1065.46+339.45Z" class="background-stroke light-fill"/>
				<path d="M1090.99+381.494L1090.99+378.194L1096.69+378.194L1096.69+362.924L1090.96+367.184L1090.96+363.224L1096+359.594L1100.44+359.594L1100.44+378.194L1105.03+378.194L1105.03+381.494L1090.99+381.494Z" class="primary-fill"/>
			</g>
			<g>
				<path d="M1127.96+339.45L1190.46+339.45L1190.46+339.45L1190.46+401.95L1190.46+401.95L1127.96+401.95L1127.96+401.95L1127.96+339.45L1127.96+339.45Z" class="primary-stroke light-fill"/>
				<path d="M1153.49+381.494L1153.49+378.194L1159.19+378.194L1159.19+362.924L1153.46+367.184L1153.46+363.224L1158.5+359.594L1162.94+359.594L1162.94+378.194L1167.53+378.194L1167.53+381.494L1153.49+381.494Z" class="primary-fill"/>
			</g>
		</g>
		<g id="right-no-carry-arrow">
			<path d="M1157.78+401.889L1157.78+434.311L720.869+434.311L719.541+434.311L719.541+435.874L719.541+520.737L722.197+520.737L722.197+437.436L1159.11+437.436L1160.44+437.436L1160.44+435.874L1160.44+401.889L1157.78+401.889Z" class="primary-fill"/>
			<path d="M732.654+487.358L720.916+524.915L709.178+487.358C716.108+493.358+725.59+493.323+732.654+487.358Z" class="primary-fill"/>
		</g>
		<g id="right-arrows">
			<g>
				<path d="M723.814+398.197L721.079+399.565C752.329+460.738+767.954+491.302+775.767+506.596C779.673+514.243+781.626+518.063+782.603+519.975C783.091+520.931+783.36+521.494+783.482+521.733C783.543+521.852+783.564+521.898+783.579+521.928L784.947+521.244L786.314+520.463C786.314+520.463+786.314+520.545+723.814+398.197Z" class="light-fill"/>
				<path d="M782.097+485.156L786.884+524.885L757.499+497.722C767.49+499.356+777.409+494.25+782.097+485.156Z" class="light-fill"/>
			</g>
			<g>
				<path d="M786.314+398.686L783.579+400.053C814.829+461.227+830.454+491.888+838.267+507.182C842.173+514.829+844.126+518.649+845.103+520.561C845.591+521.517+845.86+521.982+845.982+522.221C846.043+522.34+846.064+522.386+846.079+522.416L847.447+521.733L848.814+521.049C848.814+521.049+848.814+521.033+786.314+398.686Z" class="light-fill"/>
				<path d="M844.597+485.658L849.384+525.388L819.999+498.224C829.99+499.858+839.909+494.752+844.597+485.658Z" class="light-fill"/>
			</g>
			<g>
				<path d="M848.814+398.197L846.079+399.565C877.329+460.738+892.954+491.4+900.767+506.694C904.673+514.34+906.626+518.161+907.603+520.072C908.091+521.028+908.36+521.494+908.482+521.733C908.543+521.852+908.564+521.898+908.579+521.928L909.947+521.244L911.314+520.561C911.314+520.561+911.314+520.545+848.814+398.197Z" class="light-fill"/>
				<path d="M907.097+485.186L911.884+524.915L882.499+497.752C892.49+499.385+902.409+494.28+907.097+485.186Z" class="light-fill"/>
			</g>
			<g>
				<path d="M911.314+398.197L908.579+399.565C939.829+460.738+955.454+491.4+963.267+506.694C967.173+514.34+969.126+518.161+970.103+520.072C970.591+521.028+970.86+521.494+970.982+521.733C971.043+521.852+971.064+521.898+971.079+521.928L972.447+521.244L973.814+520.561C973.814+520.561+973.814+520.545+911.314+398.197Z" class="light-fill"/>
				<path d="M969.597+485.186L974.384+524.915L944.999+497.752C954.99+499.385+964.909+494.28+969.597+485.186Z" class="light-fill"/>
			</g>
			<g>
				<path d="M973.814+398.197L971.079+399.565C1002.33+460.738+1017.95+491.4+1025.77+506.694C1029.67+514.34+1031.63+518.161+1032.6+520.072C1033.09+521.028+1033.36+521.494+1033.48+521.733C1033.54+521.852+1033.56+521.898+1033.58+521.928L1034.95+521.244L1036.31+520.561C1036.31+520.561+1036.31+520.545+973.814+398.197Z" class="light-fill"/>
				<path d="M1032.1+485.186L1036.88+524.915L1007.5+497.752C1017.49+499.385+1027.41+494.28+1032.1+485.186Z" class="light-fill"/>
			</g>
			<g>
				<path d="M1036.31+398.197L1033.58+399.565C1064.83+460.738+1080.45+491.4+1088.27+506.694C1092.17+514.34+1094.13+518.161+1095.1+520.072C1095.59+521.028+1095.86+521.494+1095.98+521.733C1096.04+521.852+1096.06+521.898+1096.08+521.928L1097.45+521.244L1098.81+520.561C1098.81+520.561+1098.81+520.545+1036.31+398.197Z" class="light-fill"/>
				<path d="M1094.6+485.186L1099.38+524.915L1070+497.752C1079.99+499.385+1089.91+494.28+1094.6+485.186Z" class="light-fill"/>
			</g>
			<g>
				<path d="M1098.81+398.686L1096.08+400.053C1127.33+461.227+1142.95+491.888+1150.77+507.182C1154.67+514.829+1156.63+518.649+1157.6+520.561C1158.09+521.517+1158.36+521.982+1158.48+522.221C1158.54+522.34+1158.56+522.386+1158.58+522.416L1159.95+521.733L1161.31+521.049C1161.31+521.049+1161.31+521.033+1098.81+398.686Z" class="light-fill"/>
				<path d="M1157.1+485.658L1161.88+525.388L1132.5+498.224C1142.49+499.858+1152.41+494.752+1157.1+485.658Z" class="light-fill"/>
			</g>
		</g>
		<g id="right-result">
			<g>
				<path  d="M753.697+526.95L816.197+526.95L816.197+526.95L816.197+589.45L816.197+589.45L753.697+589.45L753.697+589.45L753.697+526.95L753.697+526.95Z" class="background-stroke light-fill"/>
				<path d="M785.31+569.276C783.89+569.276+782.66+569.006+781.62+568.466C780.58+567.926+779.775+567.166+779.205+566.186C778.635+565.206+778.35+564.056+778.35+562.736L778.35+553.316C778.35+551.996+778.635+550.846+779.205+549.866C779.775+548.886+780.58+548.126+781.62+547.586C782.66+547.046+783.89+546.776+785.31+546.776C786.73+546.776+787.96+547.046+789+547.586C790.04+548.126+790.845+548.886+791.415+549.866C791.985+550.846+792.27+551.996+792.27+553.316L792.27+562.736C792.27+564.056+791.985+565.206+791.415+566.186C790.845+567.166+790.04+567.926+789+568.466C787.96+569.006+786.73+569.276+785.31+569.276ZM785.31+566.036C786.35+566.036+787.18+565.736+787.8+565.136C788.42+564.536+788.73+563.736+788.73+562.736L788.73+553.316C788.73+552.316+788.425+551.516+787.815+550.916C787.205+550.316+786.37+550.016+785.31+550.016C784.25+550.016+783.415+550.316+782.805+550.916C782.195+551.516+781.89+552.316+781.89+553.316L781.89+562.736C781.89+563.736+782.2+564.536+782.82+565.136C783.44+565.736+784.27+566.036+785.31+566.036ZM785.31+559.976C784.71+559.976+784.23+559.786+783.87+559.406C783.51+559.026+783.33+558.536+783.33+557.936C783.33+557.336+783.51+556.856+783.87+556.496C784.23+556.136+784.71+555.956+785.31+555.956C785.91+555.956+786.39+556.136+786.75+556.496C787.11+556.856+787.29+557.336+787.29+557.936C787.29+558.536+787.11+559.026+786.75+559.406C786.39+559.786+785.91+559.976+785.31+559.976Z" class="primary-fill"/>
			</g>
			<g>
				<path  d="M816.197+526.95L878.697+526.95L878.697+526.95L878.697+589.45L878.697+589.45L816.197+589.45L816.197+589.45L816.197+526.95L816.197+526.95Z" class="background-stroke light-fill"/>
				<path d="M847.81+569.276C846.39+569.276+845.16+569.006+844.12+568.466C843.08+567.926+842.275+567.166+841.705+566.186C841.135+565.206+840.85+564.056+840.85+562.736L840.85+553.316C840.85+551.996+841.135+550.846+841.705+549.866C842.275+548.886+843.08+548.126+844.12+547.586C845.16+547.046+846.39+546.776+847.81+546.776C849.23+546.776+850.46+547.046+851.5+547.586C852.54+548.126+853.345+548.886+853.915+549.866C854.485+550.846+854.77+551.996+854.77+553.316L854.77+562.736C854.77+564.056+854.485+565.206+853.915+566.186C853.345+567.166+852.54+567.926+851.5+568.466C850.46+569.006+849.23+569.276+847.81+569.276ZM847.81+566.036C848.85+566.036+849.68+565.736+850.3+565.136C850.92+564.536+851.23+563.736+851.23+562.736L851.23+553.316C851.23+552.316+850.925+551.516+850.315+550.916C849.705+550.316+848.87+550.016+847.81+550.016C846.75+550.016+845.915+550.316+845.305+550.916C844.695+551.516+844.39+552.316+844.39+553.316L844.39+562.736C844.39+563.736+844.7+564.536+845.32+565.136C845.94+565.736+846.77+566.036+847.81+566.036ZM847.81+559.976C847.21+559.976+846.73+559.786+846.37+559.406C846.01+559.026+845.83+558.536+845.83+557.936C845.83+557.336+846.01+556.856+846.37+556.496C846.73+556.136+847.21+555.956+847.81+555.956C848.41+555.956+848.89+556.136+849.25+556.496C849.61+556.856+849.79+557.336+849.79+557.936C849.79+558.536+849.61+559.026+849.25+559.406C848.89+559.786+848.41+559.976+847.81+559.976Z" class="primary-fill"/>
			</g>
			<g>
				<path  d="M878.697+526.95L941.197+526.95L941.197+526.95L941.197+589.45L941.197+589.45L878.697+589.45L878.697+589.45L878.697+526.95L878.697+526.95Z" class="background-stroke light-fill"/>
				<path d="M910.31+569.276C908.89+569.276+907.66+569.006+906.62+568.466C905.58+567.926+904.775+567.166+904.205+566.186C903.635+565.206+903.35+564.056+903.35+562.736L903.35+553.316C903.35+551.996+903.635+550.846+904.205+549.866C904.775+548.886+905.58+548.126+906.62+547.586C907.66+547.046+908.89+546.776+910.31+546.776C911.73+546.776+912.96+547.046+914+547.586C915.04+548.126+915.845+548.886+916.415+549.866C916.985+550.846+917.27+551.996+917.27+553.316L917.27+562.736C917.27+564.056+916.985+565.206+916.415+566.186C915.845+567.166+915.04+567.926+914+568.466C912.96+569.006+911.73+569.276+910.31+569.276ZM910.31+566.036C911.35+566.036+912.18+565.736+912.8+565.136C913.42+564.536+913.73+563.736+913.73+562.736L913.73+553.316C913.73+552.316+913.425+551.516+912.815+550.916C912.205+550.316+911.37+550.016+910.31+550.016C909.25+550.016+908.415+550.316+907.805+550.916C907.195+551.516+906.89+552.316+906.89+553.316L906.89+562.736C906.89+563.736+907.2+564.536+907.82+565.136C908.44+565.736+909.27+566.036+910.31+566.036ZM910.31+559.976C909.71+559.976+909.23+559.786+908.87+559.406C908.51+559.026+908.33+558.536+908.33+557.936C908.33+557.336+908.51+556.856+908.87+556.496C909.23+556.136+909.71+555.956+910.31+555.956C910.91+555.956+911.39+556.136+911.75+556.496C912.11+556.856+912.29+557.336+912.29+557.936C912.29+558.536+912.11+559.026+911.75+559.406C911.39+559.786+910.91+559.976+910.31+559.976Z" class="primary-fill"/>
			</g>
			<g>
				<path  d="M941.197+526.95L1003.7+526.95L1003.7+526.95L1003.7+589.45L1003.7+589.45L941.197+589.45L941.197+589.45L941.197+526.95L941.197+526.95Z" class="background-stroke light-fill"/>
				<path d="M965.991+568.994L965.991+565.694L971.691+565.694L971.691+550.424L965.961+554.684L965.961+550.724L971.001+547.094L975.441+547.094L975.441+565.694L980.031+565.694L980.031+568.994L965.991+568.994Z" class="primary-fill"/>
			</g>
			<g>
				<path  d="M1003.7+526.95L1066.2+526.95L1066.2+526.95L1066.2+589.45L1066.2+589.45L1003.7+589.45L1003.7+589.45L1003.7+526.95L1003.7+526.95Z" class="background-stroke light-fill"/>
				<path d="M1035.31+569.276C1033.89+569.276+1032.66+569.006+1031.62+568.466C1030.58+567.926+1029.77+567.166+1029.2+566.186C1028.63+565.206+1028.35+564.056+1028.35+562.736L1028.35+553.316C1028.35+551.996+1028.63+550.846+1029.2+549.866C1029.77+548.886+1030.58+548.126+1031.62+547.586C1032.66+547.046+1033.89+546.776+1035.31+546.776C1036.73+546.776+1037.96+547.046+1039+547.586C1040.04+548.126+1040.84+548.886+1041.41+549.866C1041.98+550.846+1042.27+551.996+1042.27+553.316L1042.27+562.736C1042.27+564.056+1041.98+565.206+1041.41+566.186C1040.84+567.166+1040.04+567.926+1039+568.466C1037.96+569.006+1036.73+569.276+1035.31+569.276ZM1035.31+566.036C1036.35+566.036+1037.18+565.736+1037.8+565.136C1038.42+564.536+1038.73+563.736+1038.73+562.736L1038.73+553.316C1038.73+552.316+1038.42+551.516+1037.81+550.916C1037.2+550.316+1036.37+550.016+1035.31+550.016C1034.25+550.016+1033.41+550.316+1032.8+550.916C1032.19+551.516+1031.89+552.316+1031.89+553.316L1031.89+562.736C1031.89+563.736+1032.2+564.536+1032.82+565.136C1033.44+565.736+1034.27+566.036+1035.31+566.036ZM1035.31+559.976C1034.71+559.976+1034.23+559.786+1033.87+559.406C1033.51+559.026+1033.33+558.536+1033.33+557.936C1033.33+557.336+1033.51+556.856+1033.87+556.496C1034.23+556.136+1034.71+555.956+1035.31+555.956C1035.91+555.956+1036.39+556.136+1036.75+556.496C1037.11+556.856+1037.29+557.336+1037.29+557.936C1037.29+558.536+1037.11+559.026+1036.75+559.406C1036.39+559.786+1035.91+559.976+1035.31+559.976Z" class="primary-fill"/>
			</g>
			<g>
				<path  d="M1066.2+526.95L1128.7+526.95L1128.7+526.95L1128.7+589.45L1128.7+589.45L1066.2+589.45L1066.2+589.45L1066.2+526.95L1066.2+526.95Z" class="background-stroke light-fill"/>
				<path d="M1090.99+568.994L1090.99+565.694L1096.69+565.694L1096.69+550.424L1090.96+554.684L1090.96+550.724L1096+547.094L1100.44+547.094L1100.44+565.694L1105.03+565.694L1105.03+568.994L1090.99+568.994Z" class="primary-fill"/>
			</g>
			<g>
				<path  d="M1128.7+526.95L1191.2+526.95L1191.2+526.95L1191.2+589.45L1191.2+589.45L1128.7+589.45L1128.7+589.45L1128.7+526.95L1128.7+526.95Z" class="background-stroke light-fill"/>
				<path d="M1153.49+568.994L1153.49+565.694L1159.19+565.694L1159.19+550.424L1153.46+554.684L1153.46+550.724L1158.5+547.094L1162.94+547.094L1162.94+565.694L1167.53+565.694L1167.53+568.994L1153.49+568.994Z" class="primary-fill"/>
			</g>
			<g>
				<path d="M691.197+526.95L753.697+526.95L753.697+526.95L753.697+589.45L753.697+589.45L691.197+589.45L691.197+589.45L691.197+526.95L691.197+526.95Z" class="primary-stroke light-fill"/>
				<path d="M715.991+568.994L715.991+565.694L721.691+565.694L721.691+550.424L715.961+554.684L715.961+550.724L721.001+547.094L725.441+547.094L725.441+565.694L730.031+565.694L730.031+568.994L715.991+568.994Z" class="primary-fill"/>
			</g>
		</g>
	</g>
</svg>
